<svg xmlns="http://www.w3.org/2000/svg" id="Layer_1" data-name="Layer 1" viewBox="0 0 471.98 511.78"><defs><style>.cls02-1{fill:#030303;}.cls02-2{fill:#b2df44;}.cls02-3{fill:#fddbcc;}.cls02-4{fill:#fcc9bc;}.cls02-5{fill:#c4855b;}.cls02-6{fill:#da626d;}.cls02-7{fill:#b2de44;}.cls02-8{fill:#c3e471;}.cls02-9{fill:#c4e572;}.cls02-10{fill:#b1dd43;}.cls02-11{fill:#cb9673;}.cls02-12{fill:#c79270;}</style></defs><path class="cls02-1" d="M470.3,374.26c1.5,6.5.5,8.64-5.45,11.5-21.44,10.28-44.22,14-67.78,13.76-6-.07-12-.47-17.94-1a4.16,4.16,0,0,0-3.83,1.62,71,71,0,0,0-17.16,30.51c-.76,2.81-.41,4.1,3.05,4.32,41.17,2.65,77.32,17.8,109.05,44,7.83,6.46,15.93,12.58,23.73,19.07,2.18,1.82,3.74,1.9,6.08.47,5.12-3.12,10.36-5.86,16.71-5.74a25.56,25.56,0,0,1,23.94,17.84c3.4,10.66-.11,23.2-8.71,29.16q-42,29.1-84.24,57.92c-9.08,6.21-19.54,8-30.22,9-38.74,3.84-77.47,7.82-116.21,11.66a47.05,47.05,0,0,1-19.18-2.4c-20.21-6.51-40.47-12.91-60.61-19.63-7.21-2.41-13.36-1.65-18.77,3.82a25,25,0,0,1-2.61,2.32c-5.25,3.93-8.81,7.52-6.54,15.67,2.4,8.64-2.42,16.23-10.33,20.87s-15.53,9.79-24.22,12.95h-10c-9.87-4.53-14.22-13.73-19.24-22.45q-27.59-48-55.33-95.83-12.35-21.39,9.19-33.88,6.9-4,13.83-7.95c8.34-4.76,16.56-4.51,24.3,1.17,2.16,1.58,3.51,1.34,5.61.16,17.65-10,35.19-20.13,53.11-29.58,22.07-11.64,45.22-13.79,69-5.73a10.5,10.5,0,0,0,9.32-.77,179.54,179.54,0,0,1,76.94-22.14c4-.22,4.63-1.3,3.57-5A72.63,72.63,0,0,0,323.28,401a6.21,6.21,0,0,0-5.93-2.28c-28.58,2.41-56.58.28-82.86-12.4-39.4-19-61.17-51.37-69.72-93.43-1.66-8.19,4.75-14.91,13.91-14.77,25.14.39,49.71,4.23,73.28,13.19C277.42,301,299.18,315.64,314.2,339a104.4,104.4,0,0,1,15.86,44.7,8.36,8.36,0,0,0,2.37,5.23c2.74,2.8,5.27,5.81,8.51,9.42V393.3c0-17.32-.05-34.65.06-52a7.59,7.59,0,0,0-2.55-6.07c-30-28.79-39-64.38-33-104.47,4.37-29.53,16-56.41,31.13-81.92a23.28,23.28,0,0,1,8.42-8.75h7c4,2.26,6.6,5.74,8.87,9.62,14.86,25.44,26.37,52.16,30.64,81.53,5.8,39.93-3.27,75.27-33,104-1.28,1.24-2.61,2.29-2.6,4.51.09,19.6.06,39.2.06,60.05,5.44-7.5,11.21-12.55,12.82-21.87,7.48-43.25,35.12-69.86,74.47-85.71,24.34-9.8,49.9-13.78,76-14.16,9.46-.14,15.49,6.91,13.52,16-5.49,25.34-16.36,48-34.33,67-4.17,4.4-6.32,4.6-11.83,1.52-3.12-5.07-2.93-7.62,1.11-11.94a118.82,118.82,0,0,0,25.29-42c.75-2.11,2.15-4.11,1.61-6.61-21.46,8.71-112.78,71-120.36,82.28,22.27.68,43.61-2.36,63.68-12C462.69,370,466.82,369.57,470.3,374.26ZM411.85,518.11l-.07-.05a81.26,81.26,0,0,0,2.76,8.51c1.29,2.91-1.3,7.62,2.23,8.68,3,.9,6.77-.91,10.18-1.64a19.68,19.68,0,0,0,3.18-1.3c18.9-4.57,34.31-16.42,52.28-24.4-8.73-7-16.73-13.46-24.84-19.81-45.88-35.93-97.21-46.68-153.73-33a146.31,146.31,0,0,0-27.65,10c-1.58.75-3.61,1.64-.12,2.7,10.11,5,19.9,10.52,29.54,16.36a46.92,46.92,0,0,0,18.63,6.51c20.89,2.6,41.79,5,62.69,7.47A40.26,40.26,0,0,1,410.69,516C411.08,516.72,411.47,517.41,411.85,518.11ZM387.14,369.22a12.38,12.38,0,0,0,1.7-1c32.42-26.22,66.92-49.42,102.76-70.67,1-.58,2.29-.89,2.65-2.38-23.51,1.47-55.57,12.92-74.05,26.5-16.31,12-28.14,27.22-33.86,46.85,0,.41-.08.81-.11,1.22ZM175.05,581c1.07,2,2.07,4.13,3.22,6.14,5.6,9.76,5.77,9.92,13.88,2.3,10.31-9.68,21.82-11.56,35-7.11,19.51,6.57,39.19,12.67,58.77,19a40.15,40.15,0,0,0,16.72,1.87c37.92-3.88,75.83-7.84,113.78-11.42a58.62,58.62,0,0,0,30.29-11.47c10.56-7.81,21.62-14.95,32.45-22.4,14.25-9.81,28.54-19.58,42.74-29.46A11.36,11.36,0,0,0,525.41,513c-2.84-4.88-8.31-6.68-13.31-4-16.75,8.82-33.43,17.76-50.13,26.66-16.28,8.81-33.47,14.28-52.09,15.56-27.91,1.91-55.9,2.69-83.74,5.54-5.41.55-9-2.13-9.35-6.66-.43-4.89,2.51-7.86,8.34-8.25,23.76-1.61,47.52-3.25,71.29-4.67,3.17-.19,3.88-1.29,3.83-4.13-.17-9.35-8.21-18.76-17.77-20.06-13.35-1.82-26.72-3.6-40.13-4.92-18.34-1.81-36.18-4.56-52-15.23-12.44-8.37-26.21-14.22-40.35-19.32-20.41-7.37-40.61-7.75-60,2.15-18.63,9.51-36.64,20.26-55,30.38-2.13,1.18-2.36,2.19-1.09,4.22,2.56,4.09,4.73,8.41,7.29,12.49,2.84,4.52,2.48,8.43-1.57,11.95-6.17,1.7-8.33.88-11.52-4.56-4.36-7.47-8.59-15-13-22.44-2.6-4.35-5.7-5.2-10.1-2.81q-8.11,4.41-16,9.2c-4.23,2.57-5.06,5.79-2.54,10.17q31.28,54.27,62.67,108.47c2.67,4.61,5.64,5.29,10.45,2.65,4.66-2.57,9.25-5.27,13.86-7.94,6.48-3.76,7.19-6.36,3.42-12.89-9.62-16.73-19.2-33.48-29-50.12-2.77-4.7-2.82-8.71,1.29-12.49,6.17-1.65,8.31-.82,11.53,4.61Q167.89,568.71,175.05,581Zm7.76-279.55c5.72,24.44,23,49.37,43.48,63.13,23.44,15.73,49.57,20.59,78.63,19.86C266.3,352.47,225.78,325.94,182.81,301.4ZM340.8,174c-11.66,21.36-19.53,43.84-21.64,68-2.18,24.93,2.49,48.31,17.63,68.91,1.08,1.47,1.89,3.31,4,4Zm15.28,141.17c8.46-8.07,17-25.68,19.87-40,4.87-24.53,1.16-48.25-6.63-71.59a195.25,195.25,0,0,0-13.24-31Zm-44.74,55.05c.79-1.34,0-2.2-.27-3.1a87.06,87.06,0,0,0-28-41c-19.51-16.15-42.56-24.2-67-28.95-3.75-.73-7.52-1.92-11.69-.55C242,318.67,277.7,342.86,311.34,370.17Z" transform="translate(-70.01 -140.12)"></path><path class="cls02-2" d="M470.3,374.26c-3.48-4.69-7.61-4.22-12.34-1.94-20.07,9.68-41.41,12.72-63.68,12,7.58-11.24,98.9-73.57,120.36-82.28.54,2.5-.86,4.5-1.61,6.61a118.82,118.82,0,0,1-25.29,42c-4,4.32-4.23,6.87-1.11,11.94Z" transform="translate(-70.01 -140.12)"></path><path class="cls02-3" d="M139.6,534.67c4.05-3.52,4.41-7.43,1.57-11.95-2.56-4.08-4.73-8.4-7.29-12.49-1.27-2-1-3,1.09-4.22,18.33-10.12,36.34-20.87,55-30.38,19.42-9.9,39.62-9.52,60-2.15,14.14,5.1,27.91,10.95,40.35,19.32,15.85,10.67,33.69,13.42,52,15.23,13.41,1.32,26.78,3.1,40.13,4.92,9.56,1.3,17.6,10.71,17.77,20.06.05,2.84-.66,3.94-3.83,4.13-23.77,1.42-47.53,3.06-71.29,4.67-5.83.39-8.77,3.36-8.34,8.25.39,4.53,3.94,7.21,9.35,6.66,27.84-2.85,55.83-3.63,83.74-5.54,18.62-1.28,35.81-6.75,52.09-15.56-.78,6.38-4.46,11.43-8.13,16.28-6.1,8.06-13.47,15.53-23.44,17.68-11.89,2.57-24.23,3.06-36.39,4.34-8.06.85-16.14,1.43-24.2,2.24-11.83,1.21-23.65,2.55-35.48,3.77-7.89.81-15.85,1.17-23.68,2.37-10.12,1.55-19.91,1.47-29.76-1.83-20.46-6.85-41-13.32-61.6-19.88a28.42,28.42,0,0,0-8.25-1.67c-8.52-.13-14.46,4.72-20.48,9.88-5,4.27-9.08,9.72-15.51,12.15q-7.19-12.23-14.39-24.43c-3.22-5.43-5.36-6.26-11.53-4.61Q144.36,543.29,139.6,534.67Z" transform="translate(-70.01 -140.12)"></path><path class="cls02-4" d="M175.05,581c6.43-2.43,10.54-7.88,15.51-12.15,6-5.16,12-10,20.48-9.88a28.42,28.42,0,0,1,8.25,1.67c20.55,6.56,41.14,13,61.6,19.88,9.85,3.3,19.64,3.38,29.76,1.83,7.83-1.2,15.79-1.56,23.68-2.37,11.83-1.22,23.65-2.56,35.48-3.77,8.06-.81,16.14-1.39,24.2-2.24,12.16-1.28,24.5-1.77,36.39-4.34,10-2.15,17.34-9.62,23.44-17.68,3.67-4.85,7.35-9.9,8.13-16.28,16.7-8.9,33.38-17.84,50.13-26.66,5-2.64,10.47-.84,13.31,4A11.36,11.36,0,0,1,522,528.43c-14.2,9.88-28.49,19.65-42.74,29.46-10.83,7.45-21.89,14.59-32.45,22.4a58.62,58.62,0,0,1-30.29,11.47c-38,3.58-75.86,7.54-113.78,11.42A40.15,40.15,0,0,1,286,601.31c-19.58-6.36-39.26-12.46-58.77-19-13.23-4.45-24.74-2.57-35,7.11-8.11,7.62-8.28,7.46-13.88-2.3C177.12,585.08,176.12,583,175.05,581Z" transform="translate(-70.01 -140.12)"></path><path class="cls02-5" d="M410.69,516a40.26,40.26,0,0,0-23.76-17.88c-15.2-11.69-32.66-18.61-50.78-24.16-12.85-3.93-26.11-5.72-39.4-6.79-6.81-.55-13.84-1.19-20.68.61-3.49-1.06-1.46-1.95.12-2.7a146.31,146.31,0,0,1,27.65-10c56.52-13.72,107.85-3,153.73,33,8.11,6.35,16.11,12.84,24.84,19.81-18,8-33.38,19.83-52.28,24.4-5.24-5.89-10.92-11.2-18.35-14.25l.07.05C411.9,517.17,411.74,516.35,410.69,516Z" transform="translate(-70.01 -140.12)"></path><path class="cls02-6" d="M139.6,534.67q4.76,8.63,9.53,17.24c-4.11,3.78-4.06,7.79-1.29,12.49,9.77,16.64,19.35,33.39,29,50.12,3.77,6.53,3.06,9.13-3.42,12.89-4.61,2.67-9.2,5.37-13.86,7.94-4.81,2.64-7.78,2-10.45-2.65q-31.4-54.19-62.67-108.47c-2.52-4.38-1.69-7.6,2.54-10.17q7.89-4.78,16-9.2c4.4-2.39,7.5-1.54,10.1,2.81,4.43,7.42,8.66,15,13,22.44C131.27,535.55,133.43,536.37,139.6,534.67Z" transform="translate(-70.01 -140.12)"></path><path class="cls02-7" d="M182.81,301.4c43,24.54,83.49,51.07,122.11,83-29.06.73-55.19-4.13-78.63-19.86C205.78,350.77,188.53,325.84,182.81,301.4Z" transform="translate(-70.01 -140.12)"></path><path class="cls02-8" d="M340.8,174v140.9c-2.12-.71-2.93-2.55-4-4-15.14-20.6-19.81-44-17.63-68.91C321.27,217.79,329.14,195.31,340.8,174Z" transform="translate(-70.01 -140.12)"></path><path class="cls02-9" d="M356.08,315.12V172.53a195.25,195.25,0,0,1,13.24,31c7.79,23.34,11.5,47.06,6.63,71.59C373.12,289.44,364.54,307.05,356.08,315.12Z" transform="translate(-70.01 -140.12)"></path><path class="cls02-10" d="M386.33,368.53c5.73-19.63,17.56-34.88,33.87-46.85,18.48-13.58,50.54-25,74.05-26.5-.36,1.49-1.68,1.8-2.65,2.38-35.84,21.25-70.34,44.45-102.76,70.67a12.38,12.38,0,0,1-1.7,1Z" transform="translate(-70.01 -140.12)"></path><path class="cls02-10" d="M311.34,370.17c-33.64-27.31-69.38-51.5-107-73.64,4.17-1.37,7.94-.18,11.69.55,24.45,4.75,47.5,12.8,67,28.95a87.06,87.06,0,0,1,28,41C311.36,368,312.13,368.83,311.34,370.17Z" transform="translate(-70.01 -140.12)"></path><path class="cls02-11" d="M276.07,467.8c6.84-1.8,13.87-1.16,20.68-.61,13.29,1.07,26.55,2.86,39.4,6.79,18.12,5.55,35.58,12.47,50.78,24.16-20.9-2.48-41.8-4.87-62.69-7.47a46.92,46.92,0,0,1-18.63-6.51C296,478.32,286.18,472.77,276.07,467.8Z" transform="translate(-70.01 -140.12)"></path><path class="cls02-12" d="M411.78,518.06c7.43,3.05,13.11,8.36,18.35,14.25a19.68,19.68,0,0,1-3.18,1.3c-3.41.73-7.22,2.54-10.18,1.64-3.53-1.06-.94-5.77-2.23-8.68A81.26,81.26,0,0,1,411.78,518.06Z" transform="translate(-70.01 -140.12)"></path><path class="cls02-12" d="M410.69,516c1.05.33,1.21,1.15,1.16,2.09C411.47,517.41,411.08,516.72,410.69,516Z" transform="translate(-70.01 -140.12)"></path><path class="cls02-10" d="M387.14,369.22l-.91.53c0-.41.07-.81.1-1.22Z" transform="translate(-70.01 -140.12)"></path></svg>