<svg class="thebase-svg-icon thebase-shopping-cart-svg" fill="currentColor" version="1.1" xmlns="http://www.w3.org/2000/svg" width="24" height="24" stroke="currentColor" stroke-linecap="round" stroke-linejoin="round" stroke-width="0.5" viewBox="0 0 432 522"><title>Shopping Cart</title><path d="M412,130h-60.9C343.1,62.5,285.6,0,216,0S88.9,62.5,80.9,130H20c-11,0-20,9-20,20v352c0,11,9,20,20,20h392c11,0,20-9,20-20 V150C432,
        139,423,130,412,130z M216,40c47.5,0,87,44.7,94.7,90H121.3C129,84.7,168.5,40,216,40z M392,482H40V170h40v30 c0,11,9,20,20,20s20-9,
        20-20v-30h192v30c0,11,9,20,20,20s20-9,20-20v-30h40V482z"></path>
        </svg>